<svg width="315" height="328" viewBox="0 0 315 328" fill="none" xmlns="http://www.w3.org/2000/svg">
<g clip-path="url(#clip0)">
<g opacity="0.7">
<path opacity="0.7" d="M260.736 157.016L156.986 132.031V327.581L260.736 300.423V157.016Z" fill="url(#paint0_linear)"/>
<g opacity="0.1">
<path opacity="0.1" d="M260.736 157.016L156.986 132.031V327.581L260.736 300.423V157.016Z" fill="url(#paint1_linear)"/>
</g>
<path opacity="0.7" d="M53.2313 157.016L156.986 132.031V327.581L53.2313 300.963V157.016Z" fill="url(#paint2_linear)"/>
<g opacity="0.17">
<path opacity="0.17" d="M53.2313 157.016L156.986 132.031V327.581L53.2313 300.963V157.016Z" fill="url(#paint3_linear)"/>
</g>
<path opacity="0.7" d="M156.986 132.031L210.761 87.4893L314.511 114.107L260.736 157.016L156.986 132.031Z" fill="url(#paint4_linear)"/>
<path opacity="0.7" d="M0 114.647L53.2313 157.016L156.986 132.031L104.294 87.4893L0 114.647Z" fill="url(#paint5_linear)"/>
<g opacity="0.05">
<path opacity="0.05" d="M0 114.647L53.2313 157.016L156.986 132.031L104.294 87.4893L0 114.647Z" fill="url(#paint6_linear)"/>
</g>
<g opacity="0.5">
<path opacity="0.5" d="M155.113 109.428H81.9615C80.8966 109.428 80.0333 110.291 80.0333 111.356V178.552C80.0333 179.617 80.8966 180.48 81.9615 180.48H155.113C156.178 180.48 157.041 179.617 157.041 178.552V111.356C157.041 110.291 156.178 109.428 155.113 109.428Z" fill="url(#paint7_linear)"/>
</g>
<path opacity="0.7" d="M154.278 109.976H82.8999C81.835 109.976 80.9717 110.839 80.9717 111.904V177.378C80.9717 178.442 81.835 179.306 82.8999 179.306H154.278C155.343 179.306 156.206 178.442 156.206 177.378V111.904C156.206 110.839 155.343 109.976 154.278 109.976Z" fill="url(#paint8_linear)"/>
<path opacity="0.7" d="M97.5285 121.396H88.6974C87.6325 121.396 86.7692 122.259 86.7692 123.324V130.887C86.7692 131.951 87.6325 132.815 88.6974 132.815H97.5285C98.5935 132.815 99.4567 131.951 99.4567 130.887V123.324C99.4567 122.259 98.5935 121.396 97.5285 121.396Z" fill="url(#paint9_linear)"/>
<path opacity="0.7" d="M153.356 121.396H103.605C103.415 121.396 103.262 121.549 103.262 121.738V122.321C103.262 122.51 103.415 122.664 103.605 122.664H153.356C153.546 122.664 153.699 122.51 153.699 122.321V121.738C153.699 121.549 153.546 121.396 153.356 121.396Z" fill="url(#paint10_linear)"/>
<path opacity="0.7" d="M153.356 125.2H103.605C103.415 125.2 103.262 125.354 103.262 125.543V126.126C103.262 126.315 103.415 126.469 103.605 126.469H153.356C153.546 126.469 153.699 126.315 153.699 126.126V125.543C153.699 125.354 153.546 125.2 153.356 125.2Z" fill="url(#paint11_linear)"/>
<path opacity="0.7" d="M153.356 139.019H85.8435C85.6542 139.019 85.5007 139.173 85.5007 139.362V139.945C85.5007 140.134 85.6542 140.287 85.8435 140.287H153.356C153.546 140.287 153.699 140.134 153.699 139.945V139.362C153.699 139.173 153.546 139.019 153.356 139.019Z" fill="url(#paint12_linear)"/>
<path opacity="0.7" d="M153.356 142.824H85.8435C85.6542 142.824 85.5007 142.978 85.5007 143.167V143.75C85.5007 143.939 85.6542 144.093 85.8435 144.093H153.356C153.546 144.093 153.699 143.939 153.699 143.75V143.167C153.699 142.978 153.546 142.824 153.356 142.824Z" fill="url(#paint13_linear)"/>
<path opacity="0.7" d="M153.356 147.897H85.8435C85.6542 147.897 85.5007 148.051 85.5007 148.24V148.823C85.5007 149.012 85.6542 149.166 85.8435 149.166H153.356C153.546 149.166 153.699 149.012 153.699 148.823V148.24C153.699 148.051 153.546 147.897 153.356 147.897Z" fill="url(#paint14_linear)"/>
<path opacity="0.7" d="M124.489 151.707H85.8435C85.6542 151.707 85.5007 151.86 85.5007 152.049V152.632C85.5007 152.821 85.6542 152.975 85.8435 152.975H124.489C124.678 152.975 124.832 152.821 124.832 152.632V152.049C124.832 151.86 124.678 151.707 124.489 151.707Z" fill="url(#paint15_linear)"/>
<path opacity="0.7" d="M153.356 156.767H85.8435C85.6542 156.767 85.5007 156.921 85.5007 157.11V157.693C85.5007 157.882 85.6542 158.035 85.8435 158.035H153.356C153.546 158.035 153.699 157.882 153.699 157.693V157.11C153.699 156.921 153.546 156.767 153.356 156.767Z" fill="url(#paint16_linear)"/>
<path opacity="0.7" d="M153.356 160.572H85.8435C85.6542 160.572 85.5007 160.726 85.5007 160.915V161.498C85.5007 161.687 85.6542 161.841 85.8435 161.841H153.356C153.546 161.841 153.699 161.687 153.699 161.498V160.915C153.699 160.726 153.546 160.572 153.356 160.572Z" fill="url(#paint17_linear)"/>
<path opacity="0.7" d="M153.356 165.65H85.8435C85.6542 165.65 85.5007 165.803 85.5007 165.993V166.575C85.5007 166.765 85.6542 166.918 85.8435 166.918H153.356C153.546 166.918 153.699 166.765 153.699 166.575V165.993C153.699 165.803 153.546 165.65 153.356 165.65Z" fill="url(#paint18_linear)"/>
<path opacity="0.7" d="M124.489 169.455H85.8435C85.6542 169.455 85.5007 169.608 85.5007 169.797V170.38C85.5007 170.569 85.6542 170.723 85.8435 170.723H124.489C124.678 170.723 124.832 170.569 124.832 170.38V169.797C124.832 169.608 124.678 169.455 124.489 169.455Z" fill="url(#paint19_linear)"/>
<g opacity="0.5">
<path opacity="0.5" d="M166.734 125.843H93.5821C92.5172 125.843 91.6539 126.707 91.6539 127.771V194.967C91.6539 196.032 92.5172 196.895 93.5821 196.895H166.734C167.799 196.895 168.662 196.032 168.662 194.967V127.771C168.662 126.707 167.799 125.843 166.734 125.843Z" fill="url(#paint20_linear)"/>
</g>
<path opacity="0.7" d="M165.898 126.396H94.5205C93.4556 126.396 92.5923 127.259 92.5923 128.324V193.797C92.5923 194.862 93.4556 195.726 94.5205 195.726H165.898C166.963 195.726 167.826 194.862 167.826 193.797V128.324C167.826 127.259 166.963 126.396 165.898 126.396Z" fill="url(#paint21_linear)"/>
<path opacity="0.7" d="M109.149 137.815H100.318C99.2531 137.815 98.3898 138.678 98.3898 139.743V147.306C98.3898 148.371 99.2531 149.234 100.318 149.234H109.149C110.214 149.234 111.077 148.371 111.077 147.306V139.743C111.077 138.678 110.214 137.815 109.149 137.815Z" fill="url(#paint22_linear)"/>
<path opacity="0.7" d="M164.981 137.815H115.229C115.04 137.815 114.887 137.968 114.887 138.158V138.74C114.887 138.93 115.04 139.083 115.229 139.083H164.981C165.171 139.083 165.324 138.93 165.324 138.74V138.158C165.324 137.968 165.171 137.815 164.981 137.815Z" fill="url(#paint23_linear)"/>
<path opacity="0.7" d="M164.981 141.62H115.229C115.04 141.62 114.887 141.774 114.887 141.963V142.546C114.887 142.735 115.04 142.888 115.229 142.888H164.981C165.171 142.888 165.324 142.735 165.324 142.546V141.963C165.324 141.774 165.171 141.62 164.981 141.62Z" fill="url(#paint24_linear)"/>
<path opacity="0.7" d="M164.977 155.435H97.4643C97.2749 155.435 97.1215 155.588 97.1215 155.777V156.36C97.1215 156.549 97.2749 156.703 97.4643 156.703H164.977C165.166 156.703 165.32 156.549 165.32 156.36V155.777C165.32 155.588 165.166 155.435 164.977 155.435Z" fill="url(#paint25_linear)"/>
<path opacity="0.7" d="M164.977 159.244H97.4643C97.2749 159.244 97.1215 159.398 97.1215 159.587V160.17C97.1215 160.359 97.2749 160.512 97.4643 160.512H164.977C165.166 160.512 165.32 160.359 165.32 160.17V159.587C165.32 159.398 165.166 159.244 164.977 159.244Z" fill="url(#paint26_linear)"/>
<path opacity="0.7" d="M164.977 164.317H97.4643C97.2749 164.317 97.1215 164.471 97.1215 164.66V165.243C97.1215 165.432 97.2749 165.586 97.4643 165.586H164.977C165.166 165.586 165.32 165.432 165.32 165.243V164.66C165.32 164.471 165.166 164.317 164.977 164.317Z" fill="url(#paint27_linear)"/>
<path opacity="0.7" d="M136.11 168.122H97.4643C97.2749 168.122 97.1215 168.276 97.1215 168.465V169.048C97.1215 169.237 97.2749 169.39 97.4643 169.39H136.11C136.299 169.39 136.453 169.237 136.453 169.048V168.465C136.453 168.276 136.299 168.122 136.11 168.122Z" fill="url(#paint28_linear)"/>
<path opacity="0.7" d="M164.977 173.187H97.4643C97.2749 173.187 97.1215 173.34 97.1215 173.53V174.113C97.1215 174.302 97.2749 174.455 97.4643 174.455H164.977C165.166 174.455 165.32 174.302 165.32 174.113V173.53C165.32 173.34 165.166 173.187 164.977 173.187Z" fill="url(#paint29_linear)"/>
<path opacity="0.7" d="M164.977 176.992H97.4643C97.2749 176.992 97.1215 177.146 97.1215 177.335V177.918C97.1215 178.107 97.2749 178.26 97.4643 178.26H164.977C165.166 178.26 165.32 178.107 165.32 177.918V177.335C165.32 177.146 165.166 176.992 164.977 176.992Z" fill="url(#paint30_linear)"/>
<path opacity="0.7" d="M164.977 182.07H97.4643C97.2749 182.07 97.1215 182.223 97.1215 182.413V182.995C97.1215 183.185 97.2749 183.338 97.4643 183.338H164.977C165.166 183.338 165.32 183.185 165.32 182.995V182.413C165.32 182.223 165.166 182.07 164.977 182.07Z" fill="url(#paint31_linear)"/>
<path opacity="0.7" d="M136.11 185.875H97.4643C97.2749 185.875 97.1215 186.028 97.1215 186.217V186.8C97.1215 186.989 97.2749 187.143 97.4643 187.143H136.11C136.299 187.143 136.453 186.989 136.453 186.8V186.217C136.453 186.028 136.299 185.875 136.11 185.875Z" fill="url(#paint32_linear)"/>
<g opacity="0.5">
<path opacity="0.5" d="M203.16 135.039H136.435V213.435H203.16V135.039Z" fill="url(#paint33_linear)"/>
</g>
<path opacity="0.7" d="M201.742 136.303H138.488V211.704H201.742V136.303Z" fill="url(#paint34_linear)"/>
<g opacity="0.5">
<path opacity="0.5" d="M173.56 148.292V146.398H166.682V148.292H161.845V157.594H178.385V148.292H173.56ZM167.539 147.079H172.681V148.283H167.539V147.079Z" fill="url(#paint35_linear)"/>
</g>
<path opacity="0.7" d="M177.686 148.604H162.543V157.123H177.686V148.604Z" fill="url(#paint36_linear)"/>
<path opacity="0.7" d="M166.961 146.869V149.08H167.749V147.503H172.48V149.08H173.268V146.869H166.961Z" fill="url(#paint37_linear)"/>
<path opacity="0.7" d="M192.435 169.382H147.953V171.276H192.435V169.382Z" fill="url(#paint38_linear)"/>
<path opacity="0.7" d="M192.435 181.842H147.953V183.736H192.435V181.842Z" fill="url(#paint39_linear)"/>
<path opacity="0.7" d="M192.435 185.155H147.953V187.049H192.435V185.155Z" fill="url(#paint40_linear)"/>
<path opacity="0.7" d="M166.725 178.53H147.953V180.424H166.725V178.53Z" fill="url(#paint41_linear)"/>
<g opacity="0.6">
<path opacity="0.6" d="M192.435 178.53H178.397V180.424H192.435V178.53Z" fill="url(#paint42_linear)"/>
</g>
<path opacity="0.7" d="M177.605 192.885H163.567V194.779H177.605V192.885Z" fill="url(#paint43_linear)"/>
<path opacity="0.7" d="M53.2313 157.016V300.962L156.986 327.58V184.722L53.2313 157.016Z" fill="url(#paint44_linear)"/>
<path opacity="0.7" d="M260.736 300.423L156.986 327.58V184.722L260.736 157.016V300.423Z" fill="url(#paint45_linear)"/>
<g opacity="0.07">
<path opacity="0.07" d="M260.736 300.423L156.986 327.58V184.722L260.736 157.016V300.423Z" fill="url(#paint46_linear)"/>
</g>
<g opacity="0.07">
<path opacity="0.07" d="M219.451 252.62V299.878L260.736 288.472V241.214L219.451 252.62Z" fill="url(#paint47_linear)"/>
</g>
<path opacity="0.7" d="M237.036 145.009H206.438V174.408H237.036V145.009Z" fill="url(#paint48_linear)"/>
<path opacity="0.7" d="M236.556 145.729H206.918V173.808H236.556V145.729Z" fill="url(#paint49_linear)"/>
<g opacity="0.5">
<path opacity="0.5" d="M224.357 150.653V149.222H219.117V150.661H215.445V157.74H228.029V150.653H224.357ZM219.772 149.736H223.706V150.653H219.772V149.736Z" fill="url(#paint50_linear)"/>
</g>
<g opacity="0.6">
<path opacity="0.6" d="M227.494 150.893H215.976V157.371H227.494V150.893Z" fill="url(#paint51_linear)"/>
</g>
<g opacity="0.6">
<path opacity="0.6" d="M219.335 149.569V151.253H219.939V150.053H223.539V151.253H224.139V149.569H219.335Z" fill="url(#paint52_linear)"/>
</g>
<g opacity="0.6">
<path opacity="0.6" d="M227.314 162.411H216.636V163.85H227.314V162.411Z" fill="url(#paint53_linear)"/>
</g>
<path opacity="0.7" d="M230.857 165.05H212.617V166.49H230.857V165.05Z" fill="url(#paint54_linear)"/>
<g opacity="0.5">
<path opacity="0.5" d="M173.543 55.1423H133.899V87.7075H173.543V55.1423Z" fill="url(#paint55_linear)"/>
</g>
<path opacity="0.7" d="M173.007 55.7593H134.361V87.1676H173.007V55.7593Z" fill="url(#paint56_linear)"/>
<path opacity="0.7" d="M173.007 55.7593H134.361V62.7651H173.007V55.7593Z" fill="url(#paint57_linear)"/>
<g opacity="0.1">
<path opacity="0.1" d="M173.007 55.7593H134.361V62.7651H173.007V55.7593Z" fill="url(#paint58_linear)"/>
</g>
<path opacity="0.7" d="M169.93 65.3062H137.442V69.3854H169.93V65.3062Z" fill="url(#paint59_linear)"/>
<path opacity="0.7" d="M161.155 72.4663H137.442V73.8503H161.155V72.4663Z" fill="url(#paint60_linear)"/>
<path opacity="0.7" d="M152.838 74.853H137.442V76.2371H152.838V74.853Z" fill="url(#paint61_linear)"/>
<path opacity="0.7" d="M157.766 77.2397H137.442V78.6238H157.766V77.2397Z" fill="url(#paint62_linear)"/>
<path opacity="0.7" d="M161.155 79.6221H137.442V81.0061H161.155V79.6221Z" fill="url(#paint63_linear)"/>
<path opacity="0.7" d="M145.369 82.0088H137.442V83.3928H145.369V82.0088Z" fill="url(#paint64_linear)"/>
<g opacity="0.5">
<path opacity="0.5" d="M241.325 79.5962H192.186V119.956H241.325V79.5962Z" fill="url(#paint65_linear)"/>
</g>
<path opacity="0.7" d="M240.661 80.3589H192.76V119.287H240.661V80.3589Z" fill="url(#paint66_linear)"/>
<path opacity="0.7" d="M240.661 80.3589H192.76V89.0401H240.661V80.3589Z" fill="url(#paint67_linear)"/>
<path opacity="0.7" d="M236.839 92.1895H196.574V97.2456H236.839V92.1895Z" fill="url(#paint68_linear)"/>
<path opacity="0.7" d="M225.964 101.063H196.574V102.782H225.964V101.063Z" fill="url(#paint69_linear)"/>
<path opacity="0.7" d="M215.659 104.02H196.574V105.738H215.659V104.02Z" fill="url(#paint70_linear)"/>
<path opacity="0.7" d="M221.765 106.981H196.574V108.699H221.765V106.981Z" fill="url(#paint71_linear)"/>
<path opacity="0.7" d="M225.964 109.938H196.574V111.656H225.964V109.938Z" fill="url(#paint72_linear)"/>
<path opacity="0.7" d="M206.404 112.894H196.574V114.612H206.404V112.894Z" fill="url(#paint73_linear)"/>
<path opacity="0.7" d="M210.123 93.9077H198.674V95.4332H210.123V93.9077Z" fill="url(#paint74_linear)"/>
<g opacity="0.1">
<path opacity="0.1" d="M51.8772 231.706L109.998 246.373L156.712 208.349V184.992L52.9613 158.918L51.8772 231.706Z" fill="url(#paint75_linear)"/>
</g>
<g opacity="0.1">
<path opacity="0.1" d="M261.55 231.706L203.425 246.373L156.712 208.349V184.992L260.462 158.918L261.55 231.706Z" fill="url(#paint76_linear)"/>
</g>
<path opacity="0.7" d="M53.2313 157.016L0 201.017L103.75 227.091L156.986 184.722L53.2313 157.016Z" fill="url(#paint77_linear)"/>
<path opacity="0.7" d="M260.736 157.016L314.511 201.017L211.305 227.091L156.986 184.722L260.736 157.016Z" fill="url(#paint78_linear)"/>
<g opacity="0.07">
<path opacity="0.07" d="M260.736 157.016L314.511 201.017L211.305 227.091L156.986 184.722L260.736 157.016Z" fill="url(#paint79_linear)"/>
</g>
</g>
<path d="M260.925 155.696L158.061 130.921V324.8L260.925 297.873V155.696Z" fill="#535461"/>
<path opacity="0.1" d="M260.925 155.696L158.061 130.921V324.8L260.925 297.873V155.696Z" fill="black"/>
<path d="M55.2023 155.696L158.061 130.921V324.8L55.2023 298.409V155.696Z" fill="#535461"/>
<path opacity="0.17" d="M55.2023 154.839L158.061 130.064V324.8L55.2023 298.409V154.839Z" fill="black"/>
<path d="M157.204 131.778L211.378 86.7607L314.242 113.151L260.068 156.553L157.204 131.778Z" fill="#535461"/>
<path d="M3.28223 114.544L56.0593 156.553L158.918 131.778L106.681 87.6177L3.28223 114.544Z" fill="#535461"/>
<path opacity="0.05" d="M2.42529 113.687L56.4878 156.553L159.347 131.778L105.824 86.7607L2.42529 113.687Z" fill="black"/>
<g opacity="0.5">
<path opacity="0.5" d="M156.189 108.511H83.6969C82.632 108.511 81.7687 109.374 81.7687 110.439V177.026C81.7687 178.091 82.632 178.954 83.6969 178.954H156.189C157.254 178.954 158.117 178.091 158.117 177.026V110.439C158.117 109.374 157.254 108.511 156.189 108.511Z" fill="url(#paint80_linear)"/>
</g>
<path d="M155.362 109.059H84.631C83.566 109.059 82.7028 109.922 82.7028 110.987V175.865C82.7028 176.93 83.566 177.793 84.631 177.793H155.362C156.427 177.793 157.29 176.93 157.29 175.865V110.987C157.29 109.922 156.427 109.059 155.362 109.059Z" fill="#F5F5F5"/>
<path d="M99.1011 120.38H90.3771C89.3121 120.38 88.4489 121.243 88.4489 122.308V129.772C88.4489 130.837 89.3121 131.701 90.3771 131.701H99.1011C100.166 131.701 101.029 130.837 101.029 129.772V122.308C101.029 121.243 100.166 120.38 99.1011 120.38Z" fill="#00B0FF"/>
<path d="M154.466 120.38H105.147C104.958 120.38 104.804 120.533 104.804 120.723V121.297C104.804 121.486 104.958 121.64 105.147 121.64H154.466C154.655 121.64 154.809 121.486 154.809 121.297V120.723C154.809 120.533 154.655 120.38 154.466 120.38Z" fill="#E0E0E0"/>
<path d="M154.466 124.15H105.147C104.958 124.15 104.804 124.304 104.804 124.493V125.067C104.804 125.257 104.958 125.41 105.147 125.41H154.466C154.655 125.41 154.809 125.257 154.809 125.067V124.493C154.809 124.304 154.655 124.15 154.466 124.15Z" fill="#E0E0E0"/>
<path d="M154.466 137.85H87.5361C87.3468 137.85 87.1934 138.003 87.1934 138.192V138.767C87.1934 138.956 87.3468 139.109 87.5361 139.109H154.466C154.656 139.109 154.809 138.956 154.809 138.767V138.192C154.809 138.003 154.656 137.85 154.466 137.85Z" fill="#E0E0E0"/>
<path d="M154.466 141.625H87.5361C87.3468 141.625 87.1934 141.778 87.1934 141.967V142.541C87.1934 142.731 87.3468 142.884 87.5361 142.884H154.466C154.656 142.884 154.809 142.731 154.809 142.541V141.967C154.809 141.778 154.656 141.625 154.466 141.625Z" fill="#E0E0E0"/>
<path d="M154.466 146.655H87.5361C87.3468 146.655 87.1934 146.808 87.1934 146.998V147.572C87.1934 147.761 87.3468 147.915 87.5361 147.915H154.466C154.656 147.915 154.809 147.761 154.809 147.572V146.998C154.809 146.808 154.656 146.655 154.466 146.655Z" fill="#E0E0E0"/>
<path d="M125.847 150.43H87.5361C87.3468 150.43 87.1934 150.583 87.1934 150.772V151.347C87.1934 151.536 87.3468 151.689 87.5361 151.689H125.847C126.037 151.689 126.19 151.536 126.19 151.347V150.772C126.19 150.583 126.037 150.43 125.847 150.43Z" fill="#E0E0E0"/>
<path d="M154.466 155.447H87.5361C87.3468 155.447 87.1934 155.601 87.1934 155.79V156.364C87.1934 156.554 87.3468 156.707 87.5361 156.707H154.466C154.656 156.707 154.809 156.554 154.809 156.364V155.79C154.809 155.601 154.656 155.447 154.466 155.447Z" fill="#E0E0E0"/>
<path d="M154.466 159.223H87.5361C87.3468 159.223 87.1934 159.376 87.1934 159.565V160.14C87.1934 160.329 87.3468 160.482 87.5361 160.482H154.466C154.656 160.482 154.809 160.329 154.809 160.14V159.565C154.809 159.376 154.656 159.223 154.466 159.223Z" fill="#E0E0E0"/>
<path d="M154.466 164.253H87.5361C87.3468 164.253 87.1934 164.406 87.1934 164.596V165.17C87.1934 165.359 87.3468 165.513 87.5361 165.513H154.466C154.656 165.513 154.809 165.359 154.809 165.17V164.596C154.809 164.406 154.656 164.253 154.466 164.253Z" fill="#E0E0E0"/>
<path d="M125.847 168.028H87.5361C87.3468 168.028 87.1934 168.181 87.1934 168.371V168.945C87.1934 169.134 87.3468 169.288 87.5361 169.288H125.847C126.037 169.288 126.19 169.134 126.19 168.945V168.371C126.19 168.181 126.037 168.028 125.847 168.028Z" fill="#E0E0E0"/>
<g opacity="0.5">
<path opacity="0.5" d="M167.711 124.789H95.219C94.1541 124.789 93.2908 125.652 93.2908 126.717V193.305C93.2908 194.369 94.1541 195.233 95.219 195.233H167.711C168.776 195.233 169.639 194.369 169.639 193.305V126.717C169.639 125.652 168.776 124.789 167.711 124.789Z" fill="url(#paint81_linear)"/>
</g>
<path d="M166.884 125.337H96.1531C95.0881 125.337 94.2249 126.201 94.2249 127.266V192.143C94.2249 193.208 95.0881 194.071 96.1531 194.071H166.884C167.949 194.071 168.812 193.208 168.812 192.143V127.266C168.812 126.201 167.949 125.337 166.884 125.337Z" fill="white"/>
<path d="M110.623 136.658H101.899C100.834 136.658 99.9709 137.521 99.9709 138.586V146.051C99.9709 147.116 100.834 147.979 101.899 147.979H110.623C111.688 147.979 112.551 147.116 112.551 146.051V138.586C112.551 137.521 111.688 136.658 110.623 136.658Z" fill="#00B0FF"/>
<path d="M165.988 136.658H116.669C116.48 136.658 116.326 136.812 116.326 137.001V137.575C116.326 137.765 116.48 137.918 116.669 137.918H165.988C166.178 137.918 166.331 137.765 166.331 137.575V137.001C166.331 136.812 166.178 136.658 165.988 136.658Z" fill="#E0E0E0"/>
<path d="M165.988 140.429H116.669C116.48 140.429 116.326 140.582 116.326 140.771V141.346C116.326 141.535 116.48 141.688 116.669 141.688H165.988C166.178 141.688 166.331 141.535 166.331 141.346V140.771C166.331 140.582 166.178 140.429 165.988 140.429Z" fill="#E0E0E0"/>
<path d="M165.988 154.128H99.0582C98.8689 154.128 98.7155 154.281 98.7155 154.471V155.045C98.7155 155.234 98.8689 155.388 99.0582 155.388H165.988C166.178 155.388 166.331 155.234 166.331 155.045V154.471C166.331 154.281 166.178 154.128 165.988 154.128Z" fill="#E0E0E0"/>
<path d="M165.988 157.903H99.0582C98.8689 157.903 98.7155 158.056 98.7155 158.246V158.82C98.7155 159.009 98.8689 159.163 99.0582 159.163H165.988C166.178 159.163 166.331 159.009 166.331 158.82V158.246C166.331 158.056 166.178 157.903 165.988 157.903Z" fill="#E0E0E0"/>
<path d="M165.988 162.933H99.0582C98.8689 162.933 98.7155 163.087 98.7155 163.276V163.85C98.7155 164.039 98.8689 164.193 99.0582 164.193H165.988C166.178 164.193 166.331 164.039 166.331 163.85V163.276C166.331 163.087 166.178 162.933 165.988 162.933Z" fill="#E0E0E0"/>
<path d="M137.37 166.708H99.0582C98.8689 166.708 98.7155 166.861 98.7155 167.051V167.625C98.7155 167.814 98.8689 167.968 99.0582 167.968H137.37C137.559 167.968 137.712 167.814 137.712 167.625V167.051C137.712 166.861 137.559 166.708 137.37 166.708Z" fill="#E0E0E0"/>
<path d="M165.988 171.726H99.0582C98.8689 171.726 98.7155 171.879 98.7155 172.068V172.643C98.7155 172.832 98.8689 172.985 99.0582 172.985H165.988C166.178 172.985 166.331 172.832 166.331 172.643V172.068C166.331 171.879 166.178 171.726 165.988 171.726Z" fill="#E0E0E0"/>
<path d="M165.988 175.501H99.0582C98.8689 175.501 98.7155 175.654 98.7155 175.844V176.418C98.7155 176.607 98.8689 176.761 99.0582 176.761H165.988C166.178 176.761 166.331 176.607 166.331 176.418V175.844C166.331 175.654 166.178 175.501 165.988 175.501Z" fill="#E0E0E0"/>
<path d="M165.988 180.531H99.0582C98.8689 180.531 98.7155 180.685 98.7155 180.874V181.448C98.7155 181.638 98.8689 181.791 99.0582 181.791H165.988C166.178 181.791 166.331 181.638 166.331 181.448V180.874C166.331 180.685 166.178 180.531 165.988 180.531Z" fill="#E0E0E0"/>
<path d="M137.37 184.306H99.0582C98.8689 184.306 98.7155 184.46 98.7155 184.649V185.223C98.7155 185.412 98.8689 185.566 99.0582 185.566H137.37C137.559 185.566 137.712 185.412 137.712 185.223V184.649C137.712 184.46 137.559 184.306 137.37 184.306Z" fill="#E0E0E0"/>
<g opacity="0.5">
<path opacity="0.5" d="M203.845 133.907H137.691V211.631H203.845V133.907Z" fill="url(#paint82_linear)"/>
</g>
<path d="M202.44 135.159H139.726V209.913H202.44V135.159Z" fill="white"/>
<g opacity="0.5">
<path opacity="0.5" d="M174.498 147.045V145.164H167.664V147.045H162.882V156.27H179.28V147.045H174.498ZM168.499 145.849H173.641V147.045H168.499V145.849Z" fill="url(#paint83_linear)"/>
</g>
<path d="M178.59 147.357H163.576V155.803H178.59V147.357Z" fill="#00B0FF"/>
<path d="M167.955 145.635V147.825H168.735V146.261H173.427V147.825H174.211V145.635H167.955Z" fill="#00B0FF"/>
<path d="M193.21 167.955H149.11V169.832H193.21V167.955Z" fill="#E0E0E0"/>
<path d="M193.21 180.309H149.11V182.185H193.21V180.309Z" fill="#E0E0E0"/>
<path d="M193.21 183.595H149.11V185.472H193.21V183.595Z" fill="#E0E0E0"/>
<path d="M167.719 177.026H149.11V178.903H167.719V177.026Z" fill="#E0E0E0"/>
<path opacity="0.6" d="M193.21 177.026H179.293V178.903H193.21V177.026Z" fill="#3AD29F"/>
<path d="M178.509 191.256H164.591V193.133H178.509V191.256Z" fill="#00B0FF"/>
<path d="M55.2023 155.696V298.409L158.061 324.799L159.45 183.162L55.2023 155.696Z" fill="#535461"/>
<path d="M260.925 297.873L158.061 324.799V183.162L260.925 155.696V297.873Z" fill="#535461"/>
<path opacity="0.07" d="M260.925 297.873L158.061 324.799V183.162L260.925 155.696V297.873Z" fill="black"/>
<path opacity="0.07" d="M219.995 250.482V297.333L260.925 286.025V239.17L219.995 250.482Z" fill="black"/>
<path d="M237.43 143.792H207.093V172.938H237.43V143.792Z" fill="url(#paint84_linear)"/>
<path d="M236.955 144.504H207.569V172.343H236.955V144.504Z" fill="#F5F5F5"/>
<g opacity="0.5">
<path opacity="0.5" d="M224.863 149.384V147.936H219.665V149.367H216.027V156.386H228.501V149.384H224.863ZM220.317 148.476H224.216V149.384H220.317V148.476Z" fill="url(#paint85_linear)"/>
</g>
<path opacity="0.6" d="M227.969 149.62H216.55V156.043H227.969V149.62Z" fill="#00B0FF"/>
<path opacity="0.6" d="M219.884 148.313V149.98H220.479V148.789H224.049V149.98H224.64V148.313H219.884Z" fill="#00B0FF"/>
<g opacity="0.6">
<path opacity="0.6" d="M227.794 161.043H217.206V162.47H227.794V161.043Z" fill="#00B0FF"/>
</g>
<path d="M231.303 163.662H213.221V165.089H231.303V163.662Z" fill="#BDBDBD"/>
<path d="M208.349 0H178.012V29.1459H208.349V0Z" fill="url(#paint86_linear)"/>
<path d="M207.873 0.715576H178.487V28.5546H207.873V0.715576Z" fill="#F5F5F5"/>
<g opacity="0.5">
<path opacity="0.5" d="M195.781 5.59191V4.16504H190.584V5.59191H186.946V12.6106H199.419V5.59191H195.781ZM191.235 4.68351H195.134V5.59191H191.235V4.68351Z" fill="url(#paint87_linear)"/>
</g>
<path opacity="0.6" d="M198.888 5.82739H187.469V12.2505H198.888V5.82739Z" fill="#00B0FF"/>
<path opacity="0.6" d="M190.802 4.52051V6.18733H191.398V4.99613H194.967V6.18733H195.558V4.52051H190.802Z" fill="#00B0FF"/>
<g opacity="0.6">
<path opacity="0.6" d="M198.712 17.251H188.124V18.6778H198.712V17.251Z" fill="#00B0FF"/>
</g>
<path d="M202.221 19.8691H184.139V21.296H202.221V19.8691Z" fill="#BDBDBD"/>
<g opacity="0.5">
<path opacity="0.5" d="M174.481 54.6924H135.176V86.9791H174.481V54.6924Z" fill="url(#paint88_linear)"/>
</g>
<path d="M173.95 55.3052H135.634V86.4435H173.95V55.3052Z" fill="#F2F2F2"/>
<path d="M173.95 55.3052H135.634V62.251H173.95V55.3052Z" fill="#00B0FF"/>
<path opacity="0.1" d="M173.95 55.3052H135.634V62.251H173.95V55.3052Z" fill="black"/>
<path d="M170.899 64.7705H138.689V68.8154H170.899V64.7705Z" fill="#E0E0E0"/>
<path d="M162.196 71.8662H138.689V73.2417H162.196V71.8662Z" fill="#E0E0E0"/>
<path d="M153.952 74.2314H138.689V75.6069H153.952V74.2314Z" fill="#E0E0E0"/>
<path d="M158.837 76.5967H138.689V77.9721H158.837V76.5967Z" fill="#E0E0E0"/>
<path d="M162.196 78.9663H138.689V80.3418H162.196V78.9663Z" fill="#E0E0E0"/>
<path d="M146.552 81.3315H138.689V82.707H146.552V81.3315Z" fill="#E0E0E0"/>
<g opacity="0.5">
<path opacity="0.5" d="M241.681 78.9365H192.962V118.953H241.681V78.9365Z" fill="url(#paint89_linear)"/>
</g>
<path d="M241.021 79.6904H193.532V118.289H241.021V79.6904Z" fill="white"/>
<path d="M241.021 79.6904H193.532V88.2988H241.021V79.6904Z" fill="#00B0FF"/>
<path d="M237.238 91.4224H197.315V96.4357H237.238V91.4224Z" fill="#F5F5F5"/>
<path d="M226.453 100.219H197.315V101.92H226.453V100.219Z" fill="#E0E0E0"/>
<path d="M216.237 103.155H197.315V104.856H216.237V103.155Z" fill="#E0E0E0"/>
<path d="M222.288 106.085H197.315V107.787H222.288V106.085Z" fill="#E0E0E0"/>
<path d="M226.453 109.021H197.315V110.722H226.453V109.021Z" fill="#E0E0E0"/>
<path d="M207.059 111.952H197.315V113.653H207.059V111.952Z" fill="#E0E0E0"/>
<path d="M210.748 93.1235H199.398V94.6361H210.748V93.1235Z" fill="#69F0AE"/>
<path opacity="0.1" d="M53.8569 229.748L111.48 244.286L157.796 206.588V183.432L54.9324 157.582L53.8569 229.748Z" fill="black"/>
<path opacity="0.1" d="M261.734 229.748L204.111 244.286L157.796 206.588V183.432L260.659 157.582L261.734 229.748Z" fill="black"/>
<path d="M55.2024 155.696L2.42529 199.316L105.284 225.167L158.061 183.162L55.2024 155.696Z" fill="#535461"/>
<path d="M260.925 155.696L314.242 199.316L211.918 225.167L158.061 183.162L260.925 155.696Z" fill="#535461"/>
<path opacity="0.07" d="M260.925 155.696L314.242 199.316L211.918 225.167L158.061 183.162L260.925 155.696Z" fill="black"/>
</g>
<defs>
<linearGradient id="paint0_linear" x1="156.986" y1="229.808" x2="260.736" y2="229.808" gradientUnits="userSpaceOnUse">
<stop stop-color="#808080" stop-opacity="0.25"/>
<stop offset="0.54" stop-color="#808080" stop-opacity="0.12"/>
<stop offset="1" stop-color="#808080" stop-opacity="0.1"/>
</linearGradient>
<linearGradient id="paint1_linear" x1="156.986" y1="229.808" x2="260.736" y2="229.808" gradientUnits="userSpaceOnUse">
<stop stop-color="#808080" stop-opacity="0.25"/>
<stop offset="0.54" stop-color="#808080" stop-opacity="0.12"/>
<stop offset="1" stop-color="#808080" stop-opacity="0.1"/>
</linearGradient>
<linearGradient id="paint2_linear" x1="12942.6" y1="105009" x2="38065.8" y2="105009" gradientUnits="userSpaceOnUse">
<stop stop-color="#808080" stop-opacity="0.25"/>
<stop offset="0.54" stop-color="#808080" stop-opacity="0.12"/>
<stop offset="1" stop-color="#808080" stop-opacity="0.1"/>
</linearGradient>
<linearGradient id="paint3_linear" x1="12942.6" y1="105009" x2="38065.8" y2="105009" gradientUnits="userSpaceOnUse">
<stop stop-color="#808080" stop-opacity="0.25"/>
<stop offset="0.54" stop-color="#808080" stop-opacity="0.12"/>
<stop offset="1" stop-color="#808080" stop-opacity="0.1"/>
</linearGradient>
<linearGradient id="paint4_linear" x1="57869.7" y1="19924.2" x2="115781" y2="19924.2" gradientUnits="userSpaceOnUse">
<stop stop-color="#808080" stop-opacity="0.25"/>
<stop offset="0.54" stop-color="#808080" stop-opacity="0.12"/>
<stop offset="1" stop-color="#808080" stop-opacity="0.1"/>
</linearGradient>
<linearGradient id="paint5_linear" x1="0" y1="19924.2" x2="57514.9" y2="19924.2" gradientUnits="userSpaceOnUse">
<stop stop-color="#808080" stop-opacity="0.25"/>
<stop offset="0.54" stop-color="#808080" stop-opacity="0.12"/>
<stop offset="1" stop-color="#808080" stop-opacity="0.1"/>
</linearGradient>
<linearGradient id="paint6_linear" x1="0" y1="19924.2" x2="57514.9" y2="19924.2" gradientUnits="userSpaceOnUse">
<stop stop-color="#808080" stop-opacity="0.25"/>
<stop offset="0.54" stop-color="#808080" stop-opacity="0.12"/>
<stop offset="1" stop-color="#808080" stop-opacity="0.1"/>
</linearGradient>
<linearGradient id="paint7_linear" x1="21383.6" y1="30035.9" x2="21383.6" y2="18254.7" gradientUnits="userSpaceOnUse">
<stop stop-color="#808080" stop-opacity="0.25"/>
<stop offset="0.54" stop-color="#808080" stop-opacity="0.12"/>
<stop offset="1" stop-color="#808080" stop-opacity="0.1"/>
</linearGradient>
<linearGradient id="paint8_linear" x1="14298" y1="23512.9" x2="27507.6" y2="23512.9" gradientUnits="userSpaceOnUse">
<stop stop-color="#808080" stop-opacity="0.25"/>
<stop offset="0.54" stop-color="#808080" stop-opacity="0.12"/>
<stop offset="1" stop-color="#808080" stop-opacity="0.1"/>
</linearGradient>
<linearGradient id="paint9_linear" x1="2656" y1="3508.69" x2="3031.68" y2="3508.69" gradientUnits="userSpaceOnUse">
<stop stop-color="#808080" stop-opacity="0.25"/>
<stop offset="0.54" stop-color="#808080" stop-opacity="0.12"/>
<stop offset="1" stop-color="#808080" stop-opacity="0.1"/>
</linearGradient>
<linearGradient id="paint10_linear" x1="12258.2" y1="482.6" x2="18195.2" y2="482.6" gradientUnits="userSpaceOnUse">
<stop stop-color="#808080" stop-opacity="0.25"/>
<stop offset="0.54" stop-color="#808080" stop-opacity="0.12"/>
<stop offset="1" stop-color="#808080" stop-opacity="0.1"/>
</linearGradient>
<linearGradient id="paint11_linear" x1="12258.2" y1="497.667" x2="18195.2" y2="497.667" gradientUnits="userSpaceOnUse">
<stop stop-color="#808080" stop-opacity="0.25"/>
<stop offset="0.54" stop-color="#808080" stop-opacity="0.12"/>
<stop offset="1" stop-color="#808080" stop-opacity="0.1"/>
</linearGradient>
<linearGradient id="paint12_linear" x1="13693.8" y1="552.392" x2="24548.3" y2="552.392" gradientUnits="userSpaceOnUse">
<stop stop-color="#808080" stop-opacity="0.25"/>
<stop offset="0.54" stop-color="#808080" stop-opacity="0.12"/>
<stop offset="1" stop-color="#808080" stop-opacity="0.1"/>
</linearGradient>
<linearGradient id="paint13_linear" x1="13693.8" y1="567.46" x2="24548.3" y2="567.46" gradientUnits="userSpaceOnUse">
<stop stop-color="#808080" stop-opacity="0.25"/>
<stop offset="0.54" stop-color="#808080" stop-opacity="0.12"/>
<stop offset="1" stop-color="#808080" stop-opacity="0.1"/>
</linearGradient>
<linearGradient id="paint14_linear" x1="13693.8" y1="587.555" x2="24548.3" y2="587.555" gradientUnits="userSpaceOnUse">
<stop stop-color="#808080" stop-opacity="0.25"/>
<stop offset="0.54" stop-color="#808080" stop-opacity="0.12"/>
<stop offset="1" stop-color="#808080" stop-opacity="0.1"/>
</linearGradient>
<linearGradient id="paint15_linear" x1="7933.62" y1="602.64" x2="11543.8" y2="602.64" gradientUnits="userSpaceOnUse">
<stop stop-color="#808080" stop-opacity="0.25"/>
<stop offset="0.54" stop-color="#808080" stop-opacity="0.12"/>
<stop offset="1" stop-color="#808080" stop-opacity="0.1"/>
</linearGradient>
<linearGradient id="paint16_linear" x1="13693.8" y1="622.68" x2="24548.3" y2="622.68" gradientUnits="userSpaceOnUse">
<stop stop-color="#808080" stop-opacity="0.25"/>
<stop offset="0.54" stop-color="#808080" stop-opacity="0.12"/>
<stop offset="1" stop-color="#808080" stop-opacity="0.1"/>
</linearGradient>
<linearGradient id="paint17_linear" x1="13693.8" y1="637.748" x2="24548.3" y2="637.748" gradientUnits="userSpaceOnUse">
<stop stop-color="#808080" stop-opacity="0.25"/>
<stop offset="0.54" stop-color="#808080" stop-opacity="0.12"/>
<stop offset="1" stop-color="#808080" stop-opacity="0.1"/>
</linearGradient>
<linearGradient id="paint18_linear" x1="13693.8" y1="657.855" x2="24548.3" y2="657.855" gradientUnits="userSpaceOnUse">
<stop stop-color="#808080" stop-opacity="0.25"/>
<stop offset="0.54" stop-color="#808080" stop-opacity="0.12"/>
<stop offset="1" stop-color="#808080" stop-opacity="0.1"/>
</linearGradient>
<linearGradient id="paint19_linear" x1="7933.62" y1="672.923" x2="11543.8" y2="672.923" gradientUnits="userSpaceOnUse">
<stop stop-color="#808080" stop-opacity="0.25"/>
<stop offset="0.54" stop-color="#808080" stop-opacity="0.12"/>
<stop offset="1" stop-color="#808080" stop-opacity="0.1"/>
</linearGradient>
<linearGradient id="paint20_linear" x1="23483.7" y1="32775" x2="23483.7" y2="20993.2" gradientUnits="userSpaceOnUse">
<stop stop-color="#808080" stop-opacity="0.25"/>
<stop offset="0.54" stop-color="#808080" stop-opacity="0.12"/>
<stop offset="1" stop-color="#808080" stop-opacity="0.1"/>
</linearGradient>
<linearGradient id="paint21_linear" x1="16350" y1="26186" x2="29559.6" y2="26186" gradientUnits="userSpaceOnUse">
<stop stop-color="#808080" stop-opacity="0.25"/>
<stop offset="0.54" stop-color="#808080" stop-opacity="0.12"/>
<stop offset="1" stop-color="#808080" stop-opacity="0.1"/>
</linearGradient>
<linearGradient id="paint22_linear" x1="3011.71" y1="3962.69" x2="3387.39" y2="3962.69" gradientUnits="userSpaceOnUse">
<stop stop-color="#808080" stop-opacity="0.25"/>
<stop offset="0.54" stop-color="#808080" stop-opacity="0.12"/>
<stop offset="1" stop-color="#808080" stop-opacity="0.1"/>
</linearGradient>
<linearGradient id="paint23_linear" x1="13638.2" y1="547.629" x2="19575.2" y2="547.629" gradientUnits="userSpaceOnUse">
<stop stop-color="#808080" stop-opacity="0.25"/>
<stop offset="0.54" stop-color="#808080" stop-opacity="0.12"/>
<stop offset="1" stop-color="#808080" stop-opacity="0.1"/>
</linearGradient>
<linearGradient id="paint24_linear" x1="13638.2" y1="562.697" x2="19575.2" y2="562.697" gradientUnits="userSpaceOnUse">
<stop stop-color="#808080" stop-opacity="0.25"/>
<stop offset="0.54" stop-color="#808080" stop-opacity="0.12"/>
<stop offset="1" stop-color="#808080" stop-opacity="0.1"/>
</linearGradient>
<linearGradient id="paint25_linear" x1="15555" y1="617.391" x2="26410.1" y2="617.391" gradientUnits="userSpaceOnUse">
<stop stop-color="#808080" stop-opacity="0.25"/>
<stop offset="0.54" stop-color="#808080" stop-opacity="0.12"/>
<stop offset="1" stop-color="#808080" stop-opacity="0.1"/>
</linearGradient>
<linearGradient id="paint26_linear" x1="15555" y1="632.476" x2="26410.1" y2="632.476" gradientUnits="userSpaceOnUse">
<stop stop-color="#808080" stop-opacity="0.25"/>
<stop offset="0.54" stop-color="#808080" stop-opacity="0.12"/>
<stop offset="1" stop-color="#808080" stop-opacity="0.1"/>
</linearGradient>
<linearGradient id="paint27_linear" x1="15555" y1="652.566" x2="26410.1" y2="652.566" gradientUnits="userSpaceOnUse">
<stop stop-color="#808080" stop-opacity="0.25"/>
<stop offset="0.54" stop-color="#808080" stop-opacity="0.12"/>
<stop offset="1" stop-color="#808080" stop-opacity="0.1"/>
</linearGradient>
<linearGradient id="paint28_linear" x1="9011.9" y1="667.646" x2="12622.1" y2="667.646" gradientUnits="userSpaceOnUse">
<stop stop-color="#808080" stop-opacity="0.25"/>
<stop offset="0.54" stop-color="#808080" stop-opacity="0.12"/>
<stop offset="1" stop-color="#808080" stop-opacity="0.1"/>
</linearGradient>
<linearGradient id="paint29_linear" x1="15555" y1="687.69" x2="26410.1" y2="687.69" gradientUnits="userSpaceOnUse">
<stop stop-color="#808080" stop-opacity="0.25"/>
<stop offset="0.54" stop-color="#808080" stop-opacity="0.12"/>
<stop offset="1" stop-color="#808080" stop-opacity="0.1"/>
</linearGradient>
<linearGradient id="paint30_linear" x1="15555" y1="702.758" x2="26410.1" y2="702.758" gradientUnits="userSpaceOnUse">
<stop stop-color="#808080" stop-opacity="0.25"/>
<stop offset="0.54" stop-color="#808080" stop-opacity="0.12"/>
<stop offset="1" stop-color="#808080" stop-opacity="0.1"/>
</linearGradient>
<linearGradient id="paint31_linear" x1="15555" y1="722.865" x2="26410.1" y2="722.865" gradientUnits="userSpaceOnUse">
<stop stop-color="#808080" stop-opacity="0.25"/>
<stop offset="0.54" stop-color="#808080" stop-opacity="0.12"/>
<stop offset="1" stop-color="#808080" stop-opacity="0.1"/>
</linearGradient>
<linearGradient id="paint32_linear" x1="9011.9" y1="737.939" x2="12622.1" y2="737.939" gradientUnits="userSpaceOnUse">
<stop stop-color="#808080" stop-opacity="0.25"/>
<stop offset="0.54" stop-color="#808080" stop-opacity="0.12"/>
<stop offset="1" stop-color="#808080" stop-opacity="0.1"/>
</linearGradient>
<linearGradient id="paint33_linear" x1="26577.3" y1="39185.1" x2="26577.3" y2="24841.7" gradientUnits="userSpaceOnUse">
<stop stop-color="#808080" stop-opacity="0.25"/>
<stop offset="0.54" stop-color="#808080" stop-opacity="0.12"/>
<stop offset="1" stop-color="#808080" stop-opacity="0.1"/>
</linearGradient>
<linearGradient id="paint34_linear" x1="20582.1" y1="30755.3" x2="29919.6" y2="30755.3" gradientUnits="userSpaceOnUse">
<stop stop-color="#808080" stop-opacity="0.25"/>
<stop offset="0.54" stop-color="#808080" stop-opacity="0.12"/>
<stop offset="1" stop-color="#808080" stop-opacity="0.1"/>
</linearGradient>
<linearGradient id="paint35_linear" x1="10582" y1="5022.9" x2="10582" y2="4730.33" gradientUnits="userSpaceOnUse">
<stop stop-color="#808080" stop-opacity="0.25"/>
<stop offset="0.54" stop-color="#808080" stop-opacity="0.12"/>
<stop offset="1" stop-color="#808080" stop-opacity="0.1"/>
</linearGradient>
<linearGradient id="paint36_linear" x1="5906.82" y1="3187.54" x2="6441.96" y2="3187.54" gradientUnits="userSpaceOnUse">
<stop stop-color="#808080" stop-opacity="0.25"/>
<stop offset="0.54" stop-color="#808080" stop-opacity="0.12"/>
<stop offset="1" stop-color="#808080" stop-opacity="0.1"/>
</linearGradient>
<linearGradient id="paint37_linear" x1="2624.63" y1="910.421" x2="2717.47" y2="910.421" gradientUnits="userSpaceOnUse">
<stop stop-color="#808080" stop-opacity="0.25"/>
<stop offset="0.54" stop-color="#808080" stop-opacity="0.12"/>
<stop offset="1" stop-color="#808080" stop-opacity="0.1"/>
</linearGradient>
<linearGradient id="paint38_linear" x1="15507" y1="922.24" x2="20124.6" y2="922.24" gradientUnits="userSpaceOnUse">
<stop stop-color="#808080" stop-opacity="0.25"/>
<stop offset="0.54" stop-color="#808080" stop-opacity="0.12"/>
<stop offset="1" stop-color="#808080" stop-opacity="0.1"/>
</linearGradient>
<linearGradient id="paint39_linear" x1="15507" y1="989.77" x2="20124.6" y2="989.77" gradientUnits="userSpaceOnUse">
<stop stop-color="#808080" stop-opacity="0.25"/>
<stop offset="0.54" stop-color="#808080" stop-opacity="0.12"/>
<stop offset="1" stop-color="#808080" stop-opacity="0.1"/>
</linearGradient>
<linearGradient id="paint40_linear" x1="15507" y1="1007.74" x2="20124.6" y2="1007.74" gradientUnits="userSpaceOnUse">
<stop stop-color="#808080" stop-opacity="0.25"/>
<stop offset="0.54" stop-color="#808080" stop-opacity="0.12"/>
<stop offset="1" stop-color="#808080" stop-opacity="0.1"/>
</linearGradient>
<linearGradient id="paint41_linear" x1="6629.79" y1="971.824" x2="7452.19" y2="971.824" gradientUnits="userSpaceOnUse">
<stop stop-color="#808080" stop-opacity="0.25"/>
<stop offset="0.54" stop-color="#808080" stop-opacity="0.12"/>
<stop offset="1" stop-color="#808080" stop-opacity="0.1"/>
</linearGradient>
<linearGradient id="paint42_linear" x1="6022.68" y1="971.824" x2="6482.55" y2="971.824" gradientUnits="userSpaceOnUse">
<stop stop-color="#808080" stop-opacity="0.25"/>
<stop offset="0.54" stop-color="#808080" stop-opacity="0.12"/>
<stop offset="1" stop-color="#808080" stop-opacity="0.1"/>
</linearGradient>
<linearGradient id="paint43_linear" x1="5522.02" y1="1049.64" x2="5982.02" y2="1049.64" gradientUnits="userSpaceOnUse">
<stop stop-color="#808080" stop-opacity="0.25"/>
<stop offset="0.54" stop-color="#808080" stop-opacity="0.12"/>
<stop offset="1" stop-color="#808080" stop-opacity="0.1"/>
</linearGradient>
<linearGradient id="paint44_linear" x1="12942.6" y1="96606.2" x2="38065.8" y2="96606.2" gradientUnits="userSpaceOnUse">
<stop stop-color="#808080" stop-opacity="0.25"/>
<stop offset="0.54" stop-color="#808080" stop-opacity="0.12"/>
<stop offset="1" stop-color="#808080" stop-opacity="0.1"/>
</linearGradient>
<linearGradient id="paint45_linear" x1="38168" y1="96606.2" x2="63289" y2="96606.2" gradientUnits="userSpaceOnUse">
<stop stop-color="#808080" stop-opacity="0.25"/>
<stop offset="0.54" stop-color="#808080" stop-opacity="0.12"/>
<stop offset="1" stop-color="#808080" stop-opacity="0.1"/>
</linearGradient>
<linearGradient id="paint46_linear" x1="38168" y1="96606.2" x2="63289" y2="96606.2" gradientUnits="userSpaceOnUse">
<stop stop-color="#808080" stop-opacity="0.25"/>
<stop offset="0.54" stop-color="#808080" stop-opacity="0.12"/>
<stop offset="1" stop-color="#808080" stop-opacity="0.1"/>
</linearGradient>
<linearGradient id="paint47_linear" x1="21363.5" y1="37281.4" x2="25341.3" y2="37281.4" gradientUnits="userSpaceOnUse">
<stop stop-color="#808080" stop-opacity="0.25"/>
<stop offset="0.54" stop-color="#808080" stop-opacity="0.12"/>
<stop offset="1" stop-color="#808080" stop-opacity="0.1"/>
</linearGradient>
<linearGradient id="paint48_linear" x1="16040.8" y1="12111.1" x2="16040.8" y2="10094.1" gradientUnits="userSpaceOnUse">
<stop stop-color="#808080" stop-opacity="0.25"/>
<stop offset="0.54" stop-color="#808080" stop-opacity="0.12"/>
<stop offset="1" stop-color="#808080" stop-opacity="0.1"/>
</linearGradient>
<linearGradient id="paint49_linear" x1="14519.4" y1="10615.5" x2="16569.5" y2="10615.5" gradientUnits="userSpaceOnUse">
<stop stop-color="#808080" stop-opacity="0.25"/>
<stop offset="0.54" stop-color="#808080" stop-opacity="0.12"/>
<stop offset="1" stop-color="#808080" stop-opacity="0.1"/>
</linearGradient>
<linearGradient id="paint50_linear" x1="9660.17" y1="3862.04" x2="9660.17" y2="3692.61" gradientUnits="userSpaceOnUse">
<stop stop-color="#808080" stop-opacity="0.25"/>
<stop offset="0.54" stop-color="#808080" stop-opacity="0.12"/>
<stop offset="1" stop-color="#808080" stop-opacity="0.1"/>
</linearGradient>
<linearGradient id="paint51_linear" x1="6021.4" y1="2481.37" x2="6331.12" y2="2481.37" gradientUnits="userSpaceOnUse">
<stop stop-color="#808080" stop-opacity="0.25"/>
<stop offset="0.54" stop-color="#808080" stop-opacity="0.12"/>
<stop offset="1" stop-color="#808080" stop-opacity="0.1"/>
</linearGradient>
<linearGradient id="paint52_linear" x1="2678.16" y1="740.689" x2="2731.96" y2="740.689" gradientUnits="userSpaceOnUse">
<stop stop-color="#808080" stop-opacity="0.25"/>
<stop offset="0.54" stop-color="#808080" stop-opacity="0.12"/>
<stop offset="1" stop-color="#808080" stop-opacity="0.1"/>
</linearGradient>
<linearGradient id="paint53_linear" x1="5615.21" y1="710.524" x2="5881.41" y2="710.524" gradientUnits="userSpaceOnUse">
<stop stop-color="#808080" stop-opacity="0.25"/>
<stop offset="0.54" stop-color="#808080" stop-opacity="0.12"/>
<stop offset="1" stop-color="#808080" stop-opacity="0.1"/>
</linearGradient>
<linearGradient id="paint54_linear" x1="9263.72" y1="722.025" x2="10040.2" y2="722.025" gradientUnits="userSpaceOnUse">
<stop stop-color="#808080" stop-opacity="0.25"/>
<stop offset="0.54" stop-color="#808080" stop-opacity="0.12"/>
<stop offset="1" stop-color="#808080" stop-opacity="0.1"/>
</linearGradient>
<linearGradient id="paint55_linear" x1="14356.5" y1="6720.92" x2="14356.5" y2="4245.96" gradientUnits="userSpaceOnUse">
<stop stop-color="#808080" stop-opacity="0.25"/>
<stop offset="0.54" stop-color="#808080" stop-opacity="0.12"/>
<stop offset="1" stop-color="#808080" stop-opacity="0.1"/>
</linearGradient>
<linearGradient id="paint56_linear" x1="12252.4" y1="5294.03" x2="15737.9" y2="5294.03" gradientUnits="userSpaceOnUse">
<stop stop-color="#808080" stop-opacity="0.25"/>
<stop offset="0.54" stop-color="#808080" stop-opacity="0.12"/>
<stop offset="1" stop-color="#808080" stop-opacity="0.1"/>
</linearGradient>
<linearGradient id="paint57_linear" x1="12252.4" y1="1024.66" x2="15737.9" y2="1024.66" gradientUnits="userSpaceOnUse">
<stop stop-color="#808080" stop-opacity="0.25"/>
<stop offset="0.54" stop-color="#808080" stop-opacity="0.12"/>
<stop offset="1" stop-color="#808080" stop-opacity="0.1"/>
</linearGradient>
<linearGradient id="paint58_linear" x1="12252.4" y1="1024.66" x2="15737.9" y2="1024.66" gradientUnits="userSpaceOnUse">
<stop stop-color="#808080" stop-opacity="0.25"/>
<stop offset="0.54" stop-color="#808080" stop-opacity="0.12"/>
<stop offset="1" stop-color="#808080" stop-opacity="0.1"/>
</linearGradient>
<linearGradient id="paint59_linear" x1="10558.3" y1="706.437" x2="13021.2" y2="706.437" gradientUnits="userSpaceOnUse">
<stop stop-color="#808080" stop-opacity="0.25"/>
<stop offset="0.54" stop-color="#808080" stop-opacity="0.12"/>
<stop offset="1" stop-color="#808080" stop-opacity="0.1"/>
</linearGradient>
<linearGradient id="paint60_linear" x1="7743.51" y1="308.761" x2="9055.53" y2="308.761" gradientUnits="userSpaceOnUse">
<stop stop-color="#808080" stop-opacity="0.25"/>
<stop offset="0.54" stop-color="#808080" stop-opacity="0.12"/>
<stop offset="1" stop-color="#808080" stop-opacity="0.1"/>
</linearGradient>
<linearGradient id="paint61_linear" x1="5075.74" y1="318.857" x2="5628.91" y2="318.857" gradientUnits="userSpaceOnUse">
<stop stop-color="#808080" stop-opacity="0.25"/>
<stop offset="0.54" stop-color="#808080" stop-opacity="0.12"/>
<stop offset="1" stop-color="#808080" stop-opacity="0.1"/>
</linearGradient>
<linearGradient id="paint62_linear" x1="6656.34" y1="328.954" x2="7620.27" y2="328.954" gradientUnits="userSpaceOnUse">
<stop stop-color="#808080" stop-opacity="0.25"/>
<stop offset="0.54" stop-color="#808080" stop-opacity="0.12"/>
<stop offset="1" stop-color="#808080" stop-opacity="0.1"/>
</linearGradient>
<linearGradient id="paint63_linear" x1="7743.51" y1="339.044" x2="9055.53" y2="339.044" gradientUnits="userSpaceOnUse">
<stop stop-color="#808080" stop-opacity="0.25"/>
<stop offset="0.54" stop-color="#808080" stop-opacity="0.12"/>
<stop offset="1" stop-color="#808080" stop-opacity="0.1"/>
</linearGradient>
<linearGradient id="paint64_linear" x1="2680.13" y1="349.138" x2="2826.78" y2="349.138" gradientUnits="userSpaceOnUse">
<stop stop-color="#808080" stop-opacity="0.25"/>
<stop offset="0.54" stop-color="#808080" stop-opacity="0.12"/>
<stop offset="1" stop-color="#808080" stop-opacity="0.1"/>
</linearGradient>
<linearGradient id="paint65_linear" x1="25049.7" y1="11378.2" x2="25049.7" y2="7576.77" gradientUnits="userSpaceOnUse">
<stop stop-color="#808080" stop-opacity="0.25"/>
<stop offset="0.54" stop-color="#808080" stop-opacity="0.12"/>
<stop offset="1" stop-color="#808080" stop-opacity="0.1"/>
</linearGradient>
<linearGradient id="paint66_linear" x1="21741.5" y1="9149.1" x2="27095.8" y2="9149.1" gradientUnits="userSpaceOnUse">
<stop stop-color="#808080" stop-opacity="0.25"/>
<stop offset="0.54" stop-color="#808080" stop-opacity="0.12"/>
<stop offset="1" stop-color="#808080" stop-opacity="0.1"/>
</linearGradient>
<linearGradient id="paint67_linear" x1="21741.5" y1="1796.37" x2="27095.8" y2="1796.37" gradientUnits="userSpaceOnUse">
<stop stop-color="#808080" stop-opacity="0.25"/>
<stop offset="0.54" stop-color="#808080" stop-opacity="0.12"/>
<stop offset="1" stop-color="#808080" stop-opacity="0.1"/>
</linearGradient>
<linearGradient id="paint68_linear" x1="18668.6" y1="1209.86" x2="22452.3" y2="1209.86" gradientUnits="userSpaceOnUse">
<stop stop-color="#808080" stop-opacity="0.25"/>
<stop offset="0.54" stop-color="#808080" stop-opacity="0.12"/>
<stop offset="1" stop-color="#808080" stop-opacity="0.1"/>
</linearGradient>
<linearGradient id="paint69_linear" x1="13679.6" y1="509.764" x2="15695.4" y2="509.764" gradientUnits="userSpaceOnUse">
<stop stop-color="#808080" stop-opacity="0.25"/>
<stop offset="0.54" stop-color="#808080" stop-opacity="0.12"/>
<stop offset="1" stop-color="#808080" stop-opacity="0.1"/>
</linearGradient>
<linearGradient id="paint70_linear" x1="8951.96" y1="524.595" x2="9802" y2="524.595" gradientUnits="userSpaceOnUse">
<stop stop-color="#808080" stop-opacity="0.25"/>
<stop offset="0.54" stop-color="#808080" stop-opacity="0.12"/>
<stop offset="1" stop-color="#808080" stop-opacity="0.1"/>
</linearGradient>
<linearGradient id="paint71_linear" x1="11753.1" y1="539.416" x2="13234.1" y2="539.416" gradientUnits="userSpaceOnUse">
<stop stop-color="#808080" stop-opacity="0.25"/>
<stop offset="0.54" stop-color="#808080" stop-opacity="0.12"/>
<stop offset="1" stop-color="#808080" stop-opacity="0.1"/>
</linearGradient>
<linearGradient id="paint72_linear" x1="13679.6" y1="554.223" x2="15695.4" y2="554.223" gradientUnits="userSpaceOnUse">
<stop stop-color="#808080" stop-opacity="0.25"/>
<stop offset="0.54" stop-color="#808080" stop-opacity="0.12"/>
<stop offset="1" stop-color="#808080" stop-opacity="0.1"/>
</linearGradient>
<linearGradient id="paint73_linear" x1="4705.98" y1="569.054" x2="4931.47" y2="569.054" gradientUnits="userSpaceOnUse">
<stop stop-color="#808080" stop-opacity="0.25"/>
<stop offset="0.54" stop-color="#808080" stop-opacity="0.12"/>
<stop offset="1" stop-color="#808080" stop-opacity="0.1"/>
</linearGradient>
<linearGradient id="paint74_linear" x1="5507.22" y1="430.939" x2="5813.14" y2="430.939" gradientUnits="userSpaceOnUse">
<stop stop-color="#808080" stop-opacity="0.25"/>
<stop offset="0.54" stop-color="#808080" stop-opacity="0.12"/>
<stop offset="1" stop-color="#808080" stop-opacity="0.1"/>
</linearGradient>
<linearGradient id="paint75_linear" x1="12744.2" y1="41518.9" x2="38392.9" y2="41518.9" gradientUnits="userSpaceOnUse">
<stop stop-color="#808080" stop-opacity="0.25"/>
<stop offset="0.54" stop-color="#808080" stop-opacity="0.12"/>
<stop offset="1" stop-color="#808080" stop-opacity="0.1"/>
</linearGradient>
<linearGradient id="paint76_linear" x1="38499.3" y1="41518.9" x2="64150.2" y2="41518.9" gradientUnits="userSpaceOnUse">
<stop stop-color="#808080" stop-opacity="0.25"/>
<stop offset="0.54" stop-color="#808080" stop-opacity="0.12"/>
<stop offset="1" stop-color="#808080" stop-opacity="0.1"/>
</linearGradient>
<linearGradient id="paint77_linear" x1="0" y1="31565.4" x2="57514.9" y2="31565.4" gradientUnits="userSpaceOnUse">
<stop stop-color="#808080" stop-opacity="0.25"/>
<stop offset="0.54" stop-color="#808080" stop-opacity="0.12"/>
<stop offset="1" stop-color="#808080" stop-opacity="0.1"/>
</linearGradient>
<linearGradient id="paint78_linear" x1="57869.7" y1="31565.4" x2="115781" y2="31565.4" gradientUnits="userSpaceOnUse">
<stop stop-color="#808080" stop-opacity="0.25"/>
<stop offset="0.54" stop-color="#808080" stop-opacity="0.12"/>
<stop offset="1" stop-color="#808080" stop-opacity="0.1"/>
</linearGradient>
<linearGradient id="paint79_linear" x1="57869.7" y1="31565.4" x2="115781" y2="31565.4" gradientUnits="userSpaceOnUse">
<stop stop-color="#808080" stop-opacity="0.25"/>
<stop offset="0.54" stop-color="#808080" stop-opacity="0.12"/>
<stop offset="1" stop-color="#808080" stop-opacity="0.1"/>
</linearGradient>
<linearGradient id="paint80_linear" x1="21453.2" y1="29528.6" x2="21453.2" y2="17947.7" gradientUnits="userSpaceOnUse">
<stop stop-color="#808080" stop-opacity="0.25"/>
<stop offset="0.54" stop-color="#808080" stop-opacity="0.12"/>
<stop offset="1" stop-color="#808080" stop-opacity="0.1"/>
</linearGradient>
<linearGradient id="paint81_linear" x1="23518.5" y1="32221.1" x2="23518.5" y2="20640.1" gradientUnits="userSpaceOnUse">
<stop stop-color="#808080" stop-opacity="0.25"/>
<stop offset="0.54" stop-color="#808080" stop-opacity="0.12"/>
<stop offset="1" stop-color="#808080" stop-opacity="0.1"/>
</linearGradient>
<linearGradient id="paint82_linear" x1="26502.9" y1="38521.7" x2="26502.9" y2="24423.3" gradientUnits="userSpaceOnUse">
<stop stop-color="#808080" stop-opacity="0.25"/>
<stop offset="0.54" stop-color="#808080" stop-opacity="0.12"/>
<stop offset="1" stop-color="#808080" stop-opacity="0.1"/>
</linearGradient>
<linearGradient id="paint83_linear" x1="10531" y1="4948.15" x2="10531" y2="4660.27" gradientUnits="userSpaceOnUse">
<stop stop-color="#808080" stop-opacity="0.25"/>
<stop offset="0.54" stop-color="#808080" stop-opacity="0.12"/>
<stop offset="1" stop-color="#808080" stop-opacity="0.1"/>
</linearGradient>
<linearGradient id="paint84_linear" x1="15943.2" y1="11907.1" x2="15943.2" y2="9924.56" gradientUnits="userSpaceOnUse">
<stop stop-color="#808080" stop-opacity="0.25"/>
<stop offset="0.54" stop-color="#808080" stop-opacity="0.12"/>
<stop offset="1" stop-color="#808080" stop-opacity="0.1"/>
</linearGradient>
<linearGradient id="paint85_linear" x1="9592.36" y1="3804.68" x2="9592.36" y2="3638.14" gradientUnits="userSpaceOnUse">
<stop stop-color="#808080" stop-opacity="0.25"/>
<stop offset="0.54" stop-color="#808080" stop-opacity="0.12"/>
<stop offset="1" stop-color="#808080" stop-opacity="0.1"/>
</linearGradient>
<linearGradient id="paint86_linear" x1="13855.2" y1="1982.5" x2="13855.2" y2="0" gradientUnits="userSpaceOnUse">
<stop stop-color="#808080" stop-opacity="0.25"/>
<stop offset="0.54" stop-color="#808080" stop-opacity="0.12"/>
<stop offset="1" stop-color="#808080" stop-opacity="0.1"/>
</linearGradient>
<linearGradient id="paint87_linear" x1="8716.74" y1="824.902" x2="8716.74" y2="658.44" gradientUnits="userSpaceOnUse">
<stop stop-color="#808080" stop-opacity="0.25"/>
<stop offset="0.54" stop-color="#808080" stop-opacity="0.12"/>
<stop offset="1" stop-color="#808080" stop-opacity="0.1"/>
</linearGradient>
<linearGradient id="paint88_linear" x1="14337.8" y1="6608.57" x2="14337.8" y2="4175.77" gradientUnits="userSpaceOnUse">
<stop stop-color="#808080" stop-opacity="0.25"/>
<stop offset="0.54" stop-color="#808080" stop-opacity="0.12"/>
<stop offset="1" stop-color="#808080" stop-opacity="0.1"/>
</linearGradient>
<linearGradient id="paint89_linear" x1="24902.4" y1="11188" x2="24902.4" y2="7450.8" gradientUnits="userSpaceOnUse">
<stop stop-color="#808080" stop-opacity="0.25"/>
<stop offset="0.54" stop-color="#808080" stop-opacity="0.12"/>
<stop offset="1" stop-color="#808080" stop-opacity="0.1"/>
</linearGradient>
<clipPath id="clip0">
<rect width="314.511" height="327.58" fill="white"/>
</clipPath>
</defs>
</svg>
