<svg width="27" height="51" viewBox="0 0 27 51" fill="none" xmlns="http://www.w3.org/2000/svg">
<path d="M12.2883 35.6823C12.2883 31.6026 12.1576 28.1548 12.3645 24.7178C12.4353 23.5849 13.4539 22.5391 13.9114 21.4007C15.186 18.3559 16.8309 15.4092 17.5281 12.2064C18.1382 9.44487 16.3298 7.54937 14.0095 7.30426C11.6891 7.05915 9.79362 8.39363 9.21625 11.117C8.90098 12.8123 8.75682 14.5348 8.78595 16.2589C8.75327 26.5207 8.78595 36.7771 8.78595 47.039C8.78595 50.1382 8.01795 50.7047 5.02219 49.9258C0.882585 48.8364 0.0492175 47.7471 0.0492175 43.4985C0.0492175 33.9666 -0.0978473 24.4346 0.147261 14.8972C0.21807 11.9994 0.740967 8.76946 2.14081 6.30749C6.57454 -1.46516 16.2427 -0.849664 21.0958 1.78116C25.949 4.41199 28.144 10.5615 26.4174 17.0323C25.7853 19.2946 24.7562 21.4266 23.378 23.3289C21.8094 25.5076 19.7069 27.3377 17.8713 29.3204C16.1229 31.2922 14.418 33.2694 12.2883 35.6823Z" fill="#EA6A58"/>
</svg>
