<svg width="219" height="51" viewBox="0 0 219 51" fill="none" xmlns="http://www.w3.org/2000/svg">
<g clip-path="url(#clip0)">
<path d="M12.2883 35.6823C12.2883 31.6026 12.1576 28.1548 12.3645 24.7178C12.4353 23.5849 13.4539 22.5391 13.9114 21.4007C15.186 18.3559 16.8309 15.4092 17.5281 12.2064C18.1382 9.44487 16.3298 7.54937 14.0095 7.30426C11.6891 7.05915 9.79362 8.39363 9.21625 11.117C8.90098 12.8123 8.75682 14.5348 8.78595 16.2589C8.75327 26.5207 8.78595 36.7771 8.78595 47.039C8.78595 50.1382 8.01795 50.7047 5.02219 49.9258C0.882585 48.8364 0.0492175 47.7471 0.0492175 43.4985C0.0492175 33.9666 -0.0978473 24.4346 0.147261 14.8972C0.21807 11.9994 0.740967 8.76946 2.14081 6.30749C6.57454 -1.46516 16.2427 -0.849664 21.0958 1.78116C25.949 4.41199 28.144 10.5615 26.4174 17.0323C25.7853 19.2946 24.7562 21.4266 23.378 23.3289C21.8094 25.5076 19.7069 27.3377 17.8713 29.3204C16.1229 31.2922 14.418 33.2694 12.2883 35.6823Z" fill="#EA6A58"/>
<path d="M12.397 42.4855H24.5544C25.0917 42.4855 25.6071 42.6989 25.9871 43.0789C26.3671 43.4589 26.5806 43.9743 26.5806 44.5117V48.221C26.5806 48.7584 26.3671 49.2738 25.9871 49.6538C25.6071 50.0338 25.0917 50.2472 24.5544 50.2472H12.397V42.4855Z" fill="#231F20"/>
</g>
<g clip-path="url(#clip1)">
<path d="M45.7422 22.3184V30.166H49.666C50.2038 30.166 50.7096 30.0658 51.1836 29.8652C51.6576 29.6556 52.0723 29.373 52.4277 29.0176C52.7832 28.6621 53.0612 28.2474 53.2617 27.7734C53.4714 27.2904 53.5762 26.7799 53.5762 26.2422C53.5762 25.7044 53.4714 25.1986 53.2617 24.7246C53.0612 24.2415 52.7832 23.8223 52.4277 23.4668C52.0723 23.1113 51.6576 22.8333 51.1836 22.6328C50.7096 22.4232 50.2038 22.3184 49.666 22.3184H45.7422ZM45.7422 38H41.8184V18.3945H49.666C50.3861 18.3945 51.0788 18.4902 51.7441 18.6816C52.4095 18.8639 53.0293 19.1283 53.6035 19.4746C54.1868 19.8118 54.7155 20.222 55.1895 20.7051C55.6725 21.179 56.0827 21.7077 56.4199 22.291C56.7663 22.8743 57.0306 23.4987 57.2129 24.1641C57.4043 24.8294 57.5 25.5221 57.5 26.2422C57.5 27.3177 57.2949 28.334 56.8848 29.291C56.4746 30.2389 55.9141 31.0684 55.2031 31.7793C54.4922 32.4902 53.6582 33.0508 52.7012 33.4609C51.7533 33.8711 50.7415 34.0762 49.666 34.0762H45.7422V38ZM73.5645 30.5488C73.5645 31.6426 73.3685 32.6634 72.9766 33.6113C72.5846 34.5501 72.0514 35.3659 71.377 36.0586C70.7025 36.7422 69.9095 37.2845 68.998 37.6855C68.0957 38.0775 67.125 38.2734 66.0859 38.2734C65.056 38.2734 64.0853 38.0775 63.1738 37.6855C62.2715 37.2845 61.4785 36.7422 60.7949 36.0586C60.1204 35.3659 59.5872 34.5501 59.1953 33.6113C58.8034 32.6634 58.6074 31.6426 58.6074 30.5488C58.6074 29.4368 58.8034 28.4069 59.1953 27.459C59.5872 26.5111 60.1204 25.6953 60.7949 25.0117C61.4785 24.319 62.2715 23.7767 63.1738 23.3848C64.0853 22.9928 65.056 22.7969 66.0859 22.7969C67.125 22.7969 68.0957 22.9837 68.998 23.3574C69.9095 23.722 70.7025 24.2461 71.377 24.9297C72.0514 25.6042 72.5846 26.4199 72.9766 27.377C73.3685 28.3249 73.5645 29.3822 73.5645 30.5488ZM69.8047 30.5488C69.8047 29.9473 69.7044 29.4049 69.5039 28.9219C69.3125 28.4297 69.0482 28.0104 68.7109 27.6641C68.3737 27.3086 67.9772 27.0397 67.5215 26.8574C67.0749 26.666 66.5964 26.5703 66.0859 26.5703C65.5755 26.5703 65.0924 26.666 64.6367 26.8574C64.1901 27.0397 63.7982 27.3086 63.4609 27.6641C63.1328 28.0104 62.873 28.4297 62.6816 28.9219C62.4902 29.4049 62.3945 29.9473 62.3945 30.5488C62.3945 31.1139 62.4902 31.638 62.6816 32.1211C62.873 32.6042 63.1328 33.0234 63.4609 33.3789C63.7982 33.7344 64.1901 34.0169 64.6367 34.2266C65.0924 34.4271 65.5755 34.5273 66.0859 34.5273C66.5964 34.5273 67.0749 34.4316 67.5215 34.2402C67.9772 34.0488 68.3737 33.7799 68.7109 33.4336C69.0482 33.0872 69.3125 32.668 69.5039 32.1758C69.7044 31.6836 69.8047 31.1413 69.8047 30.5488ZM94.1133 32.709C94.1133 33.4746 93.9674 34.1992 93.6758 34.8828C93.3841 35.5573 92.9831 36.1452 92.4727 36.6465C91.9714 37.1478 91.3789 37.5443 90.6953 37.8359C90.0208 38.1276 89.2962 38.2734 88.5215 38.2734C87.8288 38.2734 87.1634 38.1549 86.5254 37.918C85.8874 37.6719 85.3086 37.3164 84.7891 36.8516C84.2786 37.3164 83.7044 37.6719 83.0664 37.918C82.4375 38.1549 81.7721 38.2734 81.0703 38.2734C80.2956 38.2734 79.571 38.1276 78.8965 37.8359C78.222 37.5443 77.6296 37.1478 77.1191 36.6465C76.6178 36.1452 76.2214 35.5573 75.9297 34.8828C75.638 34.1992 75.4922 33.4746 75.4922 32.709V23.3848H79.2246V32.709C79.2246 32.9642 79.2702 33.2057 79.3613 33.4336C79.4616 33.6523 79.5938 33.8483 79.7578 34.0215C79.931 34.1855 80.127 34.3177 80.3457 34.418C80.5736 34.5091 80.8151 34.5547 81.0703 34.5547C81.3255 34.5547 81.5671 34.5091 81.7949 34.418C82.0228 34.3177 82.2233 34.1855 82.3965 34.0215C82.5697 33.8483 82.7018 33.6523 82.793 33.4336C82.8932 33.2057 82.9434 32.9642 82.9434 32.709V23.3848H86.6621V32.709C86.6621 32.9642 86.7122 33.2057 86.8125 33.4336C86.9128 33.6523 87.0449 33.8483 87.209 34.0215C87.3822 34.1855 87.5781 34.3177 87.7969 34.418C88.0247 34.5091 88.2663 34.5547 88.5215 34.5547C88.7767 34.5547 89.0182 34.5091 89.2461 34.418C89.474 34.3177 89.6699 34.1855 89.834 34.0215C90.0072 33.8483 90.1439 33.6523 90.2441 33.4336C90.3444 33.2057 90.3945 32.9642 90.3945 32.709V23.3848H94.1133V32.709ZM102.645 34.418C102.79 34.4635 102.936 34.4954 103.082 34.5137C103.228 34.5228 103.374 34.5273 103.52 34.5273C103.884 34.5273 104.235 34.4772 104.572 34.377C104.91 34.2767 105.224 34.1354 105.516 33.9531C105.816 33.7617 106.081 33.5339 106.309 33.2695C106.546 32.9961 106.737 32.6953 106.883 32.3672L109.617 35.1152C109.271 35.6074 108.87 36.0495 108.414 36.4414C107.967 36.8333 107.48 37.166 106.951 37.4395C106.432 37.7129 105.88 37.918 105.297 38.0547C104.723 38.2005 104.13 38.2734 103.52 38.2734C102.49 38.2734 101.519 38.082 100.607 37.6992C99.7051 37.3164 98.9121 36.7832 98.2285 36.0996C97.554 35.416 97.0208 34.6048 96.6289 33.666C96.237 32.7181 96.041 31.679 96.041 30.5488C96.041 29.3913 96.237 28.334 96.6289 27.377C97.0208 26.4199 97.554 25.6042 98.2285 24.9297C98.9121 24.2552 99.7051 23.7311 100.607 23.3574C101.519 22.9837 102.49 22.7969 103.52 22.7969C104.13 22.7969 104.727 22.8698 105.311 23.0156C105.894 23.1615 106.445 23.3711 106.965 23.6445C107.493 23.918 107.986 24.2552 108.441 24.6562C108.897 25.0482 109.298 25.4902 109.645 25.9824L102.645 34.418ZM104.559 26.7207C104.385 26.6569 104.212 26.6159 104.039 26.5977C103.875 26.5794 103.702 26.5703 103.52 26.5703C103.009 26.5703 102.526 26.666 102.07 26.8574C101.624 27.0397 101.232 27.304 100.895 27.6504C100.566 27.9967 100.307 28.416 100.115 28.9082C99.9238 29.3913 99.8281 29.9382 99.8281 30.5488C99.8281 30.6855 99.8327 30.8405 99.8418 31.0137C99.86 31.1868 99.8828 31.3646 99.9102 31.5469C99.9466 31.7201 99.9876 31.8887 100.033 32.0527C100.079 32.2168 100.138 32.3626 100.211 32.4902L104.559 26.7207ZM115.264 38H111.531V23.3574H112.434L113.664 25.0938C114.266 24.5469 114.949 24.1276 115.715 23.8359C116.48 23.5352 117.273 23.3848 118.094 23.3848H121.389V27.1035H118.094C117.702 27.1035 117.333 27.1764 116.986 27.3223C116.64 27.4681 116.339 27.6686 116.084 27.9238C115.829 28.179 115.628 28.4798 115.482 28.8262C115.337 29.1725 115.264 29.5417 115.264 29.9336V38ZM153.244 38H139.518V18.3945H143.441V34.0762H153.244V38ZM160.34 34.418C160.486 34.4635 160.632 34.4954 160.777 34.5137C160.923 34.5228 161.069 34.5273 161.215 34.5273C161.579 34.5273 161.93 34.4772 162.268 34.377C162.605 34.2767 162.919 34.1354 163.211 33.9531C163.512 33.7617 163.776 33.5339 164.004 33.2695C164.241 32.9961 164.432 32.6953 164.578 32.3672L167.312 35.1152C166.966 35.6074 166.565 36.0495 166.109 36.4414C165.663 36.8333 165.175 37.166 164.646 37.4395C164.127 37.7129 163.576 37.918 162.992 38.0547C162.418 38.2005 161.826 38.2734 161.215 38.2734C160.185 38.2734 159.214 38.082 158.303 37.6992C157.4 37.3164 156.607 36.7832 155.924 36.0996C155.249 35.416 154.716 34.6048 154.324 33.666C153.932 32.7181 153.736 31.679 153.736 30.5488C153.736 29.3913 153.932 28.334 154.324 27.377C154.716 26.4199 155.249 25.6042 155.924 24.9297C156.607 24.2552 157.4 23.7311 158.303 23.3574C159.214 22.9837 160.185 22.7969 161.215 22.7969C161.826 22.7969 162.423 22.8698 163.006 23.0156C163.589 23.1615 164.141 23.3711 164.66 23.6445C165.189 23.918 165.681 24.2552 166.137 24.6562C166.592 25.0482 166.993 25.4902 167.34 25.9824L160.34 34.418ZM162.254 26.7207C162.081 26.6569 161.908 26.6159 161.734 26.5977C161.57 26.5794 161.397 26.5703 161.215 26.5703C160.704 26.5703 160.221 26.666 159.766 26.8574C159.319 27.0397 158.927 27.304 158.59 27.6504C158.262 27.9967 158.002 28.416 157.811 28.9082C157.619 29.3913 157.523 29.9382 157.523 30.5488C157.523 30.6855 157.528 30.8405 157.537 31.0137C157.555 31.1868 157.578 31.3646 157.605 31.5469C157.642 31.7201 157.683 31.8887 157.729 32.0527C157.774 32.2168 157.833 32.3626 157.906 32.4902L162.254 26.7207ZM183.295 38H182.393L180.943 35.9902C180.588 36.3092 180.21 36.61 179.809 36.8926C179.417 37.166 179.002 37.4076 178.564 37.6172C178.127 37.8177 177.676 37.9772 177.211 38.0957C176.755 38.2142 176.29 38.2734 175.816 38.2734C174.786 38.2734 173.816 38.1003 172.904 37.7539C172.002 37.4076 171.209 36.9062 170.525 36.25C169.851 35.5846 169.318 34.7734 168.926 33.8164C168.534 32.8594 168.338 31.7702 168.338 30.5488C168.338 29.4095 168.534 28.3659 168.926 27.418C169.318 26.4609 169.851 25.6406 170.525 24.957C171.209 24.2734 172.002 23.7448 172.904 23.3711C173.816 22.9883 174.786 22.7969 175.816 22.7969C176.29 22.7969 176.76 22.8561 177.225 22.9746C177.689 23.0931 178.141 23.2572 178.578 23.4668C179.016 23.6764 179.43 23.9225 179.822 24.2051C180.223 24.4876 180.597 24.793 180.943 25.1211L182.393 23.3848H183.295V38ZM179.535 30.5488C179.535 30.0384 179.435 29.5462 179.234 29.0723C179.043 28.5892 178.779 28.1654 178.441 27.8008C178.104 27.4271 177.708 27.1309 177.252 26.9121C176.805 26.6842 176.327 26.5703 175.816 26.5703C175.306 26.5703 174.823 26.6569 174.367 26.8301C173.921 27.0033 173.529 27.2585 173.191 27.5957C172.863 27.9329 172.604 28.3522 172.412 28.8535C172.221 29.3457 172.125 29.9108 172.125 30.5488C172.125 31.1868 172.221 31.7565 172.412 32.2578C172.604 32.75 172.863 33.1647 173.191 33.502C173.529 33.8392 173.921 34.0944 174.367 34.2676C174.823 34.4408 175.306 34.5273 175.816 34.5273C176.327 34.5273 176.805 34.418 177.252 34.1992C177.708 33.9714 178.104 33.6751 178.441 33.3105C178.779 32.9368 179.043 32.513 179.234 32.0391C179.435 31.556 179.535 31.0592 179.535 30.5488ZM189.885 38H186.152V23.3574H187.055L188.285 25.0938C188.887 24.5469 189.57 24.1276 190.336 23.8359C191.102 23.5352 191.895 23.3848 192.715 23.3848H196.01V27.1035H192.715C192.323 27.1035 191.954 27.1764 191.607 27.3223C191.261 27.4681 190.96 27.6686 190.705 27.9238C190.45 28.179 190.249 28.4798 190.104 28.8262C189.958 29.1725 189.885 29.5417 189.885 29.9336V38ZM201.479 38H197.746V23.3574H198.648L199.879 24.7793C200.48 24.2324 201.16 23.8132 201.916 23.5215C202.682 23.2207 203.479 23.0703 204.309 23.0703C205.202 23.0703 206.045 23.2435 206.838 23.5898C207.631 23.9271 208.324 24.3965 208.916 24.998C209.508 25.5905 209.973 26.2878 210.311 27.0898C210.657 27.8828 210.83 28.7305 210.83 29.6328V38H207.098V29.6328C207.098 29.25 207.025 28.89 206.879 28.5527C206.733 28.2064 206.533 27.9056 206.277 27.6504C206.022 27.3952 205.726 27.1947 205.389 27.0488C205.051 26.903 204.691 26.8301 204.309 26.8301C203.917 26.8301 203.548 26.903 203.201 27.0488C202.855 27.1947 202.554 27.3952 202.299 27.6504C202.044 27.9056 201.843 28.2064 201.697 28.5527C201.551 28.89 201.479 29.25 201.479 29.6328V38Z" fill="#EB6B57"/>
<path d="M136.633 24.2734C136.633 25.0846 136.478 25.8503 136.168 26.5703C135.858 27.2812 135.434 27.9056 134.896 28.4434C134.368 28.972 133.748 29.3913 133.037 29.7012C132.326 30.0111 131.565 30.166 130.754 30.166H128.785C128.512 30.166 128.257 30.2161 128.02 30.3164C127.783 30.4167 127.573 30.5579 127.391 30.7402C127.217 30.9134 127.081 31.1185 126.98 31.3555C126.88 31.5924 126.83 31.8477 126.83 32.1211V34.0762H136.1V38H122.906V32.1211C122.906 31.3099 123.061 30.5488 123.371 29.8379C123.681 29.1178 124.1 28.4935 124.629 27.9648C125.167 27.4271 125.791 27.0078 126.502 26.707C127.213 26.3971 127.974 26.2422 128.785 26.2422H130.754C131.027 26.2422 131.283 26.1921 131.52 26.0918C131.757 25.9915 131.962 25.8548 132.135 25.6816C132.317 25.4993 132.458 25.2897 132.559 25.0527C132.659 24.8066 132.709 24.5469 132.709 24.2734C132.709 24 132.659 23.7448 132.559 23.5078C132.458 23.2708 132.317 23.0658 132.135 22.8926C131.962 22.7103 131.757 22.569 131.52 22.4688C131.283 22.3685 131.027 22.3184 130.754 22.3184H123.754V18.3945H130.754C131.565 18.3945 132.326 18.5495 133.037 18.8594C133.748 19.1693 134.368 19.5931 134.896 20.1309C135.434 20.6595 135.858 21.2793 136.168 21.9902C136.478 22.7012 136.633 23.4622 136.633 24.2734Z" fill="black"/>
</g>
<defs>
<clipPath id="clip0">
<rect width="27" height="50.2635" fill="white"/>
</clipPath>
<clipPath id="clip1">
<rect width="179" height="28" fill="white" transform="translate(40 10)"/>
</clipPath>
</defs>
</svg>
